<svg xmlns="http://www.w3.org/2000/svg" xmlns:xlink="http://www.w3.org/1999/xlink" id="Ebene_1" width="800" height="800" x="0" y="0" enable-background="new 0 0 800 800" version="1.1" viewBox="0 0 800 800" xml:space="preserve"><g><g><g><defs><polyline id="SVGID_1_" points="0 0 0 800 800 800 800 0"/></defs><clipPath id="SVGID_2_"><use overflow="visible" xlink:href="#SVGID_1_"/></clipPath><polyline fill="#0068B0" points="800 800 800 0 0 0 0 800" clip-path="url(#SVGID_2_)"/></g><g><defs><polyline id="SVGID_3_" points="0 0 0 800 800 800 800 0"/></defs><clipPath id="SVGID_4_"><use overflow="visible" xlink:href="#SVGID_3_"/></clipPath><path fill="#FFF" d="M617.5,473.62V113.07H480.38v352.08c0,67.68-19.46,120.17-80.37,120.17 c-64.33,0-80.41-51.59-80.41-120.17V113.07H182.47v360.55c0,136.28,80.4,213.28,217.53,213.28 C533.73,686.91,617.5,609.9,617.5,473.62" clip-path="url(#SVGID_4_)"/></g></g></g></svg>